<?xml version="1.0" encoding="UTF-8" standalone="no"?>
<!-- Uploaded to: SVG Repo, www.svgrepo.com, Generator: SVG Repo Mixer Tools -->

<svg
   fill="#000000"
   data-name="Layer 1"
   viewBox="0 0 25.999999 49.77"
   width="267.80002"
   height="512.63104"
   version="1.1"
   id="svg6"
   xmlns="http://www.w3.org/2000/svg"
   xmlns:svg="http://www.w3.org/2000/svg">
  <defs
     id="defs6" />
  <path
     d="M 23.265,33.34 H 2.735 a 1.63,1.63 0 0 0 -1.63,1.63 v 0 1.64 a 1.65,1.65 0 0 0 1.63,1.64 h 20.53 a 1.65,1.65 0 0 0 1.63,-1.64 v -1.64 a 1.63,1.63 0 0 0 -1.63,-1.63 z"
     id="path1"
     style="fill:#ffffff" />
  <path
     d="M 23.265,44.86 H 2.735 a 1.65,1.65 0 0 0 -1.63,1.64 v 1.64 a 1.63,1.63 0 0 0 1.63,1.63 h 20.53 a 1.63,1.63 0 0 0 1.63,-1.63 v -1.65 a 1.64,1.64 0 0 0 -1.63,-1.63 z"
     id="path2"
     style="fill:#ffffff" />
  <path
     d="M 13,0 A 13,13 0 1 0 26,13 13,13 0 0 0 13,0 Z m 6.44,13.86 a 0.82,0.82 0 0 1 -0.82,0.7 H 7.38 a 0.78,0.78 0 0 1 -0.81,-0.7 11.3,11.3 0 0 1 0,-1.84 0.82,0.82 0 0 1 0.81,-0.7 h 11.24 a 0.82,0.82 0 0 1 0.82,0.7 11.3,11.3 0 0 1 0,1.84 z"
     id="path5"
     style="fill:#ffffff" />
</svg>
