<?xml version="1.0" encoding="UTF-8" standalone="no"?>
<!-- Uploaded to: SVG Repo, www.svgrepo.com, Transformed by: SVG Repo Mixer Tools -->

<svg
   width="399.79538"
   height="473.82471"
   viewBox="0 0 343.91 407.59114"
   version="1.1"
   fill="#000000"
   id="svg1"
   xmlns="http://www.w3.org/2000/svg"
   xmlns:svg="http://www.w3.org/2000/svg">
  <defs
     id="defs1" />
  <g
     id="SVGRepo_bgCarrier"
     stroke-width="0"
     transform="translate(-85.572501,-42.666667)" />
  <g
     id="SVGRepo_tracerCarrier"
     stroke-linecap="round"
     stroke-linejoin="round"
     transform="translate(-85.572501,-42.666667)" />
  <g
     id="SVGRepo_iconCarrier"
     transform="translate(-85.572501,-42.666667)">
    <title
       id="title1">log</title>
    <g
       id="Page-1"
       stroke="none"
       stroke-width="1"
       fill="none"
       fill-rule="evenodd">
      <g
         id="log-white"
         fill="#ffffff"
         transform="translate(85.572501,42.666667)">
        <path
           d="M 236.34963,0 H 1.6829653 V 234.66667 H 44.349632 V 192 169.6 42.666667 H 218.64296 l 81.70667,81.706663 V 169.6 192 234.66667 h 42.66667 v -128 z M 0,405.33333 V 277.36052 H 28.809687 V 382.75521 H 83.81 v 22.57812 z M 153.17,275.10271 c 20.10958,0 35.52292,6.38208 46.24,19.14625 10.29562,12.22229 15.44344,27.93667 15.44344,47.14312 0,21.01271 -6.08104,37.72052 -18.24313,50.12344 -10.47625,10.71708 -24.95635,16.07563 -43.44031,16.07563 -20.10958,0 -35.52292,-6.38209 -46.24,-19.14625 -10.295625,-12.2223 -15.443437,-28.1775 -15.443437,-47.86563 0,-20.59125 6.081041,-37.08833 18.243127,-49.49125 10.53646,-10.65687 25.01656,-15.98531 43.44031,-15.98531 z m -0.0903,22.57812 c -10.41604,0 -18.45386,4.335 -24.11344,13.005 -5.11771,7.82709 -7.67656,17.88188 -7.67656,30.16438 0,14.20916 3.04052,25.22729 9.12156,33.05437 5.71979,7.40563 13.30604,11.10844 22.75875,11.10844 10.35583,0 18.42375,-4.3651 24.20375,-13.09531 5.11771,-7.70667 7.67656,-17.88188 7.67656,-30.52563 0,-13.90812 -3.04052,-24.77573 -9.12156,-32.60281 -5.71979,-7.40562 -13.33615,-11.10844 -22.84906,-11.10844 z M 343.91,333.71552 v 65.29594 c -7.34542,2.46854 -12.52333,4.09416 -15.53375,4.87687 -9.33229,2.46854 -19.35698,3.70282 -30.07406,3.70282 -21.07292,0 -37.11844,-5.29834 -48.13657,-15.895 -12.22229,-11.68042 -18.33343,-27.96678 -18.33343,-48.85907 0,-24.02312 7.58625,-42.14583 22.75875,-54.36812 11.01812,-8.91083 25.88958,-13.36625 44.61437,-13.36625 16.01542,0 30.91698,2.9201 44.70469,8.76031 l -9.84406,22.48781 c -6.5025,-3.25125 -12.19219,-5.52411 -17.06907,-6.81859 -4.87687,-1.29448 -10.23541,-1.94172 -16.07562,-1.94172 -13.96833,0 -24.26396,4.54573 -30.88688,13.63719 -5.59937,7.70666 -8.39906,17.85177 -8.39906,30.43531 0,15.11229 4.21459,26.49167 12.64375,34.13813 6.74334,6.14125 15.11229,9.21187 25.10688,9.21187 5.84021,0 11.37937,-0.99344 16.6175,-2.98031 v -25.73906 h -22.03625 v -22.57813 z"
           id="XLS" />
      </g>
    </g>
  </g>
</svg>
