<?xml version="1.0" encoding="UTF-8" standalone="no"?>
<svg
   data-name="Layer 1"
   version="1.1"
   viewBox="0 0 21.998999 23.999999"
   id="svg1"
   width="468.5787"
   height="511.20001"
   xmlns="http://www.w3.org/2000/svg"
   xmlns:svg="http://www.w3.org/2000/svg">
  <defs
     id="defs1" />
  <path
     d="M 16,4 V 2 C 16,0.897 15.103,0 14,0 H 8 C 6.897,0 6,0.897 6,2 V 4 H 0 V 6 H 1.644 L 3.347,21.331 C 3.516,22.852 4.798,24 6.329,24 h 9.304 c 1.531,0 2.813,-1.147 2.981,-2.669 L 20.317,6 h 1.682 V 4 h -6 z M 8,2 h 6 V 4 H 8 Z M 14.957,16.543 13.543,17.957 11,15.414 8.457,17.957 7.043,16.543 9.586,14 7.043,11.457 8.457,10.043 11,12.586 13.543,10.043 14.957,11.457 12.414,14 Z"
     fill="#ffffff"
     id="path1" />
</svg>
